<?xml version="1.0" encoding="utf-8"?>
<!-- Generator: Adobe Illustrator 27.9.0, SVG Export Plug-In . SVG Version: 6.00 Build 0)  -->
<svg version="1.1" id="Layer_1" xmlns="http://www.w3.org/2000/svg" xmlns:xlink="http://www.w3.org/1999/xlink" x="0px" y="0px"
	 viewBox="0 0 1171.79 2621.06" style="enable-background:new 0 0 1171.79 2621.06;" xml:space="preserve">
<style type="text/css">
	.st0{fill-rule:evenodd;clip-rule:evenodd;fill:#00CAF5;}
	.st1{opacity:0.5;}
	.st2{opacity:0.75;}
	.st3{fill:#00CAF5;}
	.st4{fill:#F2F2F2;}
	.st5{opacity:0.5;fill:#F2F2F2;}
	.st6{opacity:0.75;fill:#00CAF5;}
</style>
<g>
	<g id="Page-1_28_">
		<g id="Icons-Pattern-One_28_" transform="translate(-860.000000, -93.000000)">
			<g id="Favorite_1_" transform="translate(860.000000, 93.000000)">
				<path class="st0" d="M1008.42,1548.94c-9.94,0-18,8.43-18,18.83c0,12.55,14,29.29,34,49.17c20-19.88,33.95-36.52,34-49.08
					c0-10.49-8.06-18.92-18-18.92c-6.97,0-13.01,4.14-16,10.2C1021.43,1553.08,1015.39,1548.94,1008.42,1548.94z"/>
			</g>
		</g>
	</g>
	<g id="Page-1_6_" class="st1">
		<g id="Icons-Pattern-One_6_" transform="translate(-860.000000, -465.000000)">
			<g id="Queue" transform="translate(860.000000, 465.000000)">
				<path class="st0" d="M148.65,2149.72h30.48c2.15,0,3.89,1.74,3.89,3.89c0,2.15-1.74,3.89-3.89,3.89h-34.3l3.97-2.32
					c0.46-0.27,0.85-0.66,1.12-1.12c0.86-1.48,0.36-3.38-1.12-4.25L148.65,2149.72z M120.82,2200.24c0-2.15,1.74-3.89,3.89-3.89
					h54.41c2.15,0,3.89,1.74,3.89,3.89c0,2.15-1.74,3.89-3.89,3.89h-54.41C122.56,2204.13,120.82,2202.39,120.82,2200.24z
					 M120.82,2176.92c0-2.15,1.74-3.89,3.89-3.89h54.41c2.15,0,3.89,1.74,3.89,3.89c0,2.15-1.74,3.89-3.89,3.89h-54.41
					C122.56,2180.81,120.82,2179.07,120.82,2176.92z M142.82,2154.38l-26.24,15.3c-1.04,0.61-2.38,0.26-2.99-0.79
					c-0.2-0.33-0.3-0.71-0.3-1.1v-30.61c0-1.21,0.98-2.19,2.19-2.19c0.39,0,0.77,0.1,1.1,0.3l26.24,15.3
					c1.04,0.61,1.4,1.95,0.79,2.99C143.41,2153.92,143.14,2154.19,142.82,2154.38z"/>
			</g>
		</g>
	</g>
	<g>
		<g class="st2">
			<g id="Page-1_23_">
				<g id="Icons-Pattern-One_23_" transform="translate(-716.000000, -93.000000)">
					<g id="Pause_3_" transform="translate(709.000000, 93.000000)">
						<path class="st0" d="M828.93,1898.44c4.55,0,8.24,3.69,8.24,8.24v62.63c0,4.55-3.69,8.24-8.24,8.24s-8.24-3.69-8.24-8.24
							v-62.63C820.69,1902.13,824.38,1898.44,828.93,1898.44z"/>
					</g>
				</g>
			</g>
			<g id="Page-1_22_">
				<g id="Icons-Pattern-One_22_" transform="translate(-560.000000, -93.000000)">
					<g id="Play_3_" transform="translate(558.000000, 93.000000)">
						<path class="st0" d="M813.57,1942.17l-59.35,34.61c-2.36,1.38-5.39,0.58-6.76-1.78c-0.44-0.76-0.67-1.62-0.67-2.49v-69.22
							c0-2.73,2.21-4.95,4.95-4.95c0.88,0,1.74,0.23,2.49,0.67l59.35,34.61c2.36,1.38,3.16,4.4,1.78,6.76
							C814.92,1941.12,814.3,1941.74,813.57,1942.17z"/>
					</g>
				</g>
			</g>
		</g>
		<g class="st2">
			<g id="Page-1_25_">
				<g id="Icons-Pattern-One_25_" transform="translate(-716.000000, -93.000000)">
					<g id="Pause_4_" transform="translate(709.000000, 93.000000)">
						<path class="st0" d="M367.81,1977.45c-4.55,0-8.24-3.69-8.24-8.24v-62.63c0-4.55,3.69-8.24,8.24-8.24
							c4.55,0,8.24,3.69,8.24,8.24v62.63C376.05,1973.76,372.36,1977.45,367.81,1977.45z"/>
					</g>
				</g>
			</g>
			<g id="Page-1_24_">
				<g id="Icons-Pattern-One_24_" transform="translate(-560.000000, -93.000000)">
					<g id="Play_4_" transform="translate(558.000000, 93.000000)">
						<path class="st0" d="M373.18,1933.73l59.35-34.61c2.36-1.38,5.39-0.58,6.76,1.78c0.44,0.76,0.67,1.62,0.67,2.49v69.22
							c0,2.73-2.21,4.95-4.95,4.95c-0.88,0-1.74-0.23-2.49-0.67l-59.35-34.61c-2.36-1.38-3.16-4.4-1.78-6.76
							C371.83,1934.77,372.44,1934.16,373.18,1933.73z"/>
					</g>
				</g>
			</g>
		</g>
		<g id="Page-1_21_" class="st2">
			<g id="Icons-Pattern-One_21_" transform="translate(-716.000000, -93.000000)">
				<g id="Pause_2_" transform="translate(709.000000, 93.000000)">
					<path class="st0" d="M578.2,1884.78c6.13,0,11.09,4.97,11.09,11.09v84.29c0,6.13-4.97,11.09-11.09,11.09
						c-6.13,0-11.09-4.97-11.09-11.09v-84.29C567.11,1889.74,572.08,1884.78,578.2,1884.78z M617.92,1884.78
						c6.13,0,11.09,4.97,11.09,11.09v84.29c0,6.13-4.97,11.09-11.09,11.09s-11.09-4.97-11.09-11.09v-84.29
						C606.83,1889.74,611.8,1884.78,617.92,1884.78z"/>
				</g>
			</g>
		</g>
		<g id="Page-1_27_" class="st1">
			<g id="Icons-Pattern-One_27_" transform="translate(-256.000000, -282.000000)">
				<g id="Repeat_1_" transform="translate(256.000000, 279.000000)">
					<path class="st3" d="M1013.03,1954.79h17.56c14.88,0,21.54-5.36,21.54-16.57h6.38c0,15.32-9.82,23.22-27.92,23.22h-17.56v5.03
						l-14.36-8.31l14.36-8.31V1954.79z M1044.14,1928.29h-17.56c-14.88,0-21.54,5.36-21.54,16.57h-6.38
						c0-15.32,9.82-23.22,27.92-23.22h17.56v-5.03l14.36,8.31l-14.36,8.31V1928.29z"/>
				</g>
			</g>
		</g>
		<g id="Page-1_26_" class="st1">
			<g id="Icons-Pattern-One_26_" transform="translate(-105.000000, -284.000000)">
				<g id="Shuffle_1_" transform="translate(105.000000, 279.000000)">
					<path class="st3" d="M169.73,1927.43v-4.83l13.6,8.05l-13.6,8.05v-4.83h-2.56c-7.63,0-13.87,4.02-18.92,12.27
						c-5.16,8.93-12.62,13.5-22.04,13.5h-2.72v-6.44h2.72c7.64,0,13.41-3.54,17.59-10.77c6.08-9.95,13.93-15,23.36-15H169.73z
						 M169.73,1953.21v-4.83l13.6,8.05l-13.6,8.05v-4.83h-2.56c-7.49,0-13.98-3.19-19.39-9.49c0.16-0.26,0.32-0.52,0.47-0.79
						c0.95-1.56,1.94-2.96,2.98-4.22c4.47,5.41,9.74,8.05,15.93,8.05H169.73L169.73,1953.21z M145.42,1936.75
						c-0.55,0.78-1.09,1.6-1.61,2.46c-0.56,0.97-1.15,1.88-1.77,2.72c-3.99-5.4-9.21-8.05-15.82-8.05h-2.72v-6.44h2.72
						C134.04,1927.43,140.5,1930.58,145.42,1936.75L145.42,1936.75z"/>
				</g>
			</g>
		</g>
	</g>
	<g class="st2">
		<path class="st4" d="M413.32,204.85c1.48-0.25,3.42-0.46,5.89-0.46c3.04,0,5.26,0.71,6.67,1.98c1.31,1.13,2.08,2.86,2.08,4.98
			c0,2.15-0.64,3.85-1.84,5.08c-1.62,1.73-4.27,2.61-7.27,2.61c-0.92,0-1.77-0.04-2.47-0.21v9.53h-3.07V204.85z M416.39,216.32
			c0.67,0.18,1.52,0.25,2.54,0.25c3.71,0,5.96-1.8,5.96-5.08c0-3.14-2.22-4.66-5.61-4.66c-1.34,0-2.36,0.11-2.89,0.25V216.32z"/>
		<path class="st4" d="M431.81,203.3h3.11v25.06h-3.11V203.3z"/>
		<path class="st4" d="M449.6,228.36l-0.25-2.15h-0.11c-0.95,1.34-2.79,2.54-5.22,2.54c-3.46,0-5.22-2.44-5.22-4.91
			c0-4.13,3.67-6.39,10.27-6.35v-0.35c0-1.41-0.39-3.95-3.88-3.95c-1.59,0-3.25,0.49-4.45,1.27l-0.71-2.05
			c1.41-0.92,3.46-1.52,5.61-1.52c5.22,0,6.49,3.56,6.49,6.99v6.39c0,1.48,0.07,2.93,0.28,4.09H449.6z M449.14,219.64
			c-3.39-0.07-7.23,0.53-7.23,3.85c0,2.01,1.34,2.96,2.93,2.96c2.22,0,3.64-1.41,4.13-2.86c0.11-0.32,0.18-0.67,0.18-0.99V219.64z"
			/>
		<path class="st4" d="M458,211.28l3.74,10.09c0.39,1.13,0.81,2.47,1.09,3.49h0.07c0.32-1.02,0.67-2.33,1.09-3.56l3.39-10.02h3.28
			l-4.66,12.18c-2.22,5.86-3.74,8.86-5.86,10.69c-1.52,1.34-3.04,1.87-3.81,2.01l-0.78-2.61c0.78-0.25,1.8-0.74,2.72-1.52
			c0.85-0.67,1.91-1.87,2.61-3.46c0.14-0.32,0.25-0.56,0.25-0.74c0-0.18-0.07-0.42-0.21-0.81l-6.32-15.74H458z"/>
		<path class="st4" d="M476.95,206.48c0.04,1.06-0.74,1.91-1.98,1.91c-1.09,0-1.87-0.85-1.87-1.91c0-1.09,0.81-1.94,1.94-1.94
			C476.21,204.53,476.95,205.38,476.95,206.48z M473.49,228.36v-17.08h3.11v17.08H473.49z"/>
		<path class="st4" d="M481.75,215.9c0-1.76-0.04-3.21-0.14-4.62h2.75l0.18,2.82h0.07c0.85-1.62,2.82-3.21,5.65-3.21
			c2.36,0,6.04,1.41,6.04,7.27v10.2h-3.11v-9.85c0-2.75-1.02-5.05-3.95-5.05c-2.05,0-3.64,1.45-4.16,3.18
			c-0.14,0.39-0.21,0.92-0.21,1.45v10.27h-3.11V215.9z"/>
		<path class="st4" d="M516.05,211.28c-0.07,1.24-0.14,2.61-0.14,4.69v9.92c0,3.92-0.78,6.32-2.44,7.8
			c-1.66,1.55-4.06,2.05-6.21,2.05c-2.05,0-4.31-0.49-5.68-1.41l0.78-2.36c1.13,0.71,2.89,1.34,5.01,1.34
			c3.18,0,5.51-1.66,5.51-5.96v-1.91h-0.07c-0.95,1.59-2.79,2.86-5.44,2.86c-4.24,0-7.27-3.6-7.27-8.33c0-5.79,3.78-9.07,7.69-9.07
			c2.96,0,4.59,1.55,5.33,2.96h0.07l0.14-2.58H516.05z M512.84,218.02c0-0.53-0.04-0.99-0.18-1.41c-0.56-1.8-2.08-3.28-4.34-3.28
			c-2.96,0-5.08,2.51-5.08,6.46c0,3.35,1.69,6.14,5.05,6.14c1.91,0,3.64-1.2,4.31-3.18c0.18-0.53,0.25-1.13,0.25-1.66V218.02z"/>
		<path class="st4" d="M528.86,228.36v-14.72h-2.4v-2.36h2.4v-0.81c0-2.4,0.53-4.59,1.98-5.96c1.16-1.13,2.72-1.59,4.16-1.59
			c1.09,0,2.05,0.25,2.65,0.49l-0.42,2.4c-0.46-0.21-1.09-0.39-1.98-0.39c-2.65,0-3.32,2.33-3.32,4.94v0.92h4.13v2.36h-4.13v14.72
			H528.86z"/>
		<path class="st4" d="M538.84,216.6c0-2.01-0.04-3.74-0.14-5.33h2.72l0.11,3.35h0.14c0.78-2.29,2.65-3.74,4.73-3.74
			c0.35,0,0.6,0.04,0.88,0.11v2.93c-0.32-0.07-0.64-0.11-1.06-0.11c-2.19,0-3.74,1.66-4.16,3.99c-0.07,0.42-0.14,0.92-0.14,1.45
			v9.11h-3.07V216.6z"/>
		<path class="st4" d="M565.49,219.67c0,6.32-4.38,9.07-8.51,9.07c-4.62,0-8.19-3.39-8.19-8.79c0-5.72,3.74-9.07,8.47-9.07
			C562.17,210.89,565.49,214.45,565.49,219.67z M551.94,219.85c0,3.74,2.15,6.56,5.19,6.56c2.96,0,5.19-2.79,5.19-6.64
			c0-2.89-1.45-6.56-5.12-6.56C553.52,213.22,551.94,216.6,551.94,219.85z"/>
		<path class="st4" d="M569.4,215.9c0-1.76-0.04-3.21-0.14-4.62h2.72l0.14,2.75h0.11c0.95-1.62,2.54-3.14,5.36-3.14
			c2.33,0,4.09,1.41,4.83,3.42h0.07c0.53-0.95,1.2-1.69,1.91-2.22c1.02-0.78,2.15-1.2,3.78-1.2c2.26,0,5.61,1.48,5.61,7.41v10.06
			h-3.03v-9.67c0-3.28-1.2-5.26-3.71-5.26c-1.76,0-3.14,1.31-3.67,2.82c-0.14,0.42-0.25,0.99-0.25,1.55v10.55h-3.04v-10.24
			c0-2.72-1.2-4.69-3.56-4.69c-1.94,0-3.35,1.55-3.85,3.11c-0.18,0.46-0.25,0.99-0.25,1.52v10.31h-3.04V215.9z"/>
		<path class="st4" d="M609.49,207.18h-7.24v-2.61h17.61v2.61h-7.27v21.18h-3.11V207.18z"/>
		<path class="st4" d="M629.61,228.36l-0.25-2.15h-0.11c-0.95,1.34-2.79,2.54-5.22,2.54c-3.46,0-5.22-2.44-5.22-4.91
			c0-4.13,3.67-6.39,10.27-6.35v-0.35c0-1.41-0.39-3.95-3.88-3.95c-1.59,0-3.25,0.49-4.45,1.27l-0.71-2.05
			c1.41-0.92,3.46-1.52,5.61-1.52c5.22,0,6.49,3.56,6.49,6.99v6.39c0,1.48,0.07,2.93,0.28,4.09H629.61z M629.15,219.64
			c-3.39-0.07-7.24,0.53-7.24,3.85c0,2.01,1.34,2.96,2.93,2.96c2.22,0,3.63-1.41,4.13-2.86c0.11-0.32,0.18-0.67,0.18-0.99V219.64z"
			/>
		<path class="st4" d="M638.01,211.28l3.74,10.09c0.39,1.13,0.81,2.47,1.09,3.49h0.07c0.32-1.02,0.67-2.33,1.09-3.56l3.39-10.02
			h3.28l-4.66,12.18c-2.22,5.86-3.74,8.86-5.86,10.69c-1.52,1.34-3.04,1.87-3.81,2.01l-0.78-2.61c0.78-0.25,1.8-0.74,2.72-1.52
			c0.85-0.67,1.91-1.87,2.61-3.46c0.14-0.32,0.25-0.56,0.25-0.74c0-0.18-0.07-0.42-0.21-0.81l-6.32-15.74H638.01z"/>
		<path class="st4" d="M653.5,203.3h3.11v25.06h-3.11V203.3z"/>
		<path class="st4" d="M677.28,219.67c0,6.32-4.38,9.07-8.51,9.07c-4.62,0-8.19-3.39-8.19-8.79c0-5.72,3.74-9.07,8.47-9.07
			C673.97,210.89,677.28,214.45,677.28,219.67z M663.73,219.85c0,3.74,2.15,6.56,5.19,6.56c2.96,0,5.19-2.79,5.19-6.64
			c0-2.89-1.45-6.56-5.12-6.56C665.32,213.22,663.73,216.6,663.73,219.85z"/>
		<path class="st4" d="M681.2,216.6c0-2.01-0.04-3.74-0.14-5.33h2.72l0.11,3.35h0.14c0.78-2.29,2.65-3.74,4.73-3.74
			c0.35,0,0.6,0.04,0.88,0.11v2.93c-0.32-0.07-0.64-0.11-1.06-0.11c-2.19,0-3.74,1.66-4.17,3.99c-0.07,0.42-0.14,0.92-0.14,1.45
			v9.11h-3.07V216.6z"/>
		<path class="st4" d="M699.9,224.62c1.38,0.85,3.39,1.55,5.51,1.55c3.14,0,4.98-1.66,4.98-4.06c0-2.22-1.27-3.49-4.48-4.73
			c-3.88-1.38-6.28-3.39-6.28-6.74c0-3.71,3.07-6.46,7.69-6.46c2.43,0,4.2,0.56,5.26,1.17l-0.85,2.51
			c-0.78-0.42-2.36-1.13-4.52-1.13c-3.25,0-4.48,1.94-4.48,3.56c0,2.22,1.45,3.32,4.73,4.59c4.02,1.55,6.07,3.49,6.07,6.99
			c0,3.67-2.72,6.85-8.33,6.85c-2.29,0-4.8-0.67-6.07-1.52L699.9,224.62z"/>
		<path class="st4" d="M718.57,211.28l2.26,8.68c0.49,1.91,0.95,3.67,1.27,5.44h0.11c0.39-1.73,0.95-3.56,1.52-5.4l2.79-8.72h2.61
			l2.65,8.54c0.63,2.05,1.13,3.85,1.52,5.58h0.11c0.28-1.73,0.74-3.53,1.31-5.54l2.44-8.58h3.07l-5.51,17.08h-2.82l-2.61-8.15
			c-0.6-1.91-1.09-3.6-1.52-5.61h-0.07c-0.42,2.05-0.95,3.81-1.55,5.65l-2.75,8.12h-2.82l-5.15-17.08H718.57z"/>
		<path class="st4" d="M746.77,206.48c0.04,1.06-0.74,1.91-1.98,1.91c-1.09,0-1.87-0.85-1.87-1.91c0-1.09,0.81-1.94,1.94-1.94
			C746.03,204.53,746.77,205.38,746.77,206.48z M743.31,228.36v-17.08h3.11v17.08H743.31z"/>
		<path class="st4" d="M751.88,228.36v-14.72h-2.4v-2.36h2.4v-0.81c0-2.4,0.53-4.59,1.98-5.96c1.17-1.13,2.72-1.59,4.17-1.59
			c1.09,0,2.05,0.25,2.65,0.49l-0.42,2.4c-0.46-0.21-1.09-0.39-1.98-0.39c-2.65,0-3.32,2.33-3.32,4.94v0.92h4.13v2.36h-4.13v14.72
			H751.88z"/>
		<path class="st4" d="M766,206.37v4.91h4.45v2.36H766v9.21c0,2.12,0.6,3.32,2.33,3.32c0.81,0,1.41-0.11,1.8-0.21l0.14,2.33
			c-0.6,0.25-1.55,0.42-2.75,0.42c-1.45,0-2.61-0.46-3.35-1.31c-0.88-0.92-1.2-2.44-1.2-4.45v-9.32h-2.65v-2.36h2.65v-4.09
			L766,206.37z"/>
	</g>
	<g>
		<path class="st3" d="M129.84,1552.43c2.65-0.54,7.46-0.95,12.14-0.95c6.17,0,9.97,0.75,13.09,2.92c2.85,1.7,4.75,4.68,4.75,8.55
			c0,4.21-2.65,8.07-7.6,9.9v0.14c4.82,1.22,9.23,5.02,9.23,11.33c0,4.07-1.76,7.26-4.41,9.43c-3.26,2.85-8.62,4.27-16.96,4.27
			c-4.61,0-8.14-0.34-10.24-0.61V1552.43z M138.12,1570.48h4.27c5.77,0,9.02-2.71,9.02-6.58c0-4.27-3.26-6.24-8.55-6.24
			c-2.44,0-3.87,0.13-4.75,0.34V1570.48z M138.12,1591.51c1.09,0.14,2.51,0.2,4.41,0.2c5.36,0,10.11-2.04,10.11-7.67
			c0-5.29-4.61-7.46-10.38-7.46h-4.14V1591.51z"/>
		<path class="st3" d="M187.37,1597.54l-0.54-3.66h-0.2c-2.04,2.58-5.5,4.41-9.77,4.41c-6.65,0-10.38-4.82-10.38-9.84
			c0-8.34,7.39-12.55,19.61-12.48v-0.54c0-2.17-0.88-5.77-6.72-5.77c-3.26,0-6.65,1.02-8.89,2.44l-1.63-5.43
			c2.44-1.49,6.72-2.92,11.94-2.92c10.58,0,13.64,6.72,13.64,13.91v11.94c0,2.99,0.14,5.9,0.48,7.94H187.37z M186.28,1581.4
			c-5.9-0.14-11.53,1.15-11.53,6.17c0,3.26,2.1,4.75,4.75,4.75c3.32,0,5.77-2.17,6.51-4.54c0.2-0.61,0.27-1.29,0.27-1.83V1581.4z"/>
		<path class="st3" d="M233.7,1549.38v38.87c0,3.39,0.14,7.05,0.27,9.29h-7.46l-0.34-5.22h-0.14c-1.97,3.66-5.97,5.97-10.79,5.97
			c-7.87,0-14.11-6.72-14.11-16.89c-0.07-11.06,6.85-17.64,14.79-17.64c4.55,0,7.8,1.9,9.29,4.34h0.14v-18.72H233.7z
			 M225.36,1578.28c0-0.68-0.07-1.49-0.2-2.17c-0.75-3.26-3.39-5.9-7.19-5.9c-5.36,0-8.34,4.75-8.34,10.92
			c0,6.04,2.98,10.45,8.28,10.45c3.39,0,6.38-2.31,7.19-5.9c0.2-0.75,0.27-1.56,0.27-2.44V1578.28z"/>
		<path class="st3" d="M257.04,1552.43c2.65-0.54,7.46-0.95,12.14-0.95c6.17,0,9.97,0.75,13.09,2.92c2.85,1.7,4.75,4.68,4.75,8.55
			c0,4.21-2.65,8.07-7.6,9.9v0.14c4.82,1.22,9.23,5.02,9.23,11.33c0,4.07-1.76,7.26-4.41,9.43c-3.26,2.85-8.62,4.27-16.96,4.27
			c-4.61,0-8.14-0.34-10.24-0.61V1552.43z M265.32,1570.48h4.27c5.77,0,9.02-2.71,9.02-6.58c0-4.27-3.26-6.24-8.55-6.24
			c-2.44,0-3.87,0.13-4.75,0.34V1570.48z M265.32,1591.51c1.09,0.14,2.51,0.2,4.41,0.2c5.36,0,10.11-2.04,10.11-7.67
			c0-5.29-4.61-7.46-10.38-7.46h-4.14V1591.51z"/>
		<path class="st3" d="M295.78,1549.38h8.41v48.17h-8.41V1549.38z"/>
		<path class="st3" d="M344.62,1580.72c0,12.14-8.55,17.57-16.96,17.57c-9.36,0-16.55-6.44-16.55-17.03c0-10.85,7.12-17.5,17.1-17.5
			C338.04,1563.76,344.62,1570.68,344.62,1580.72z M319.73,1581.06c0,6.38,3.12,11.19,8.21,11.19c4.75,0,8.07-4.68,8.07-11.33
			c0-5.16-2.31-11.06-8.01-11.06C322.1,1569.86,319.73,1575.56,319.73,1581.06z"/>
		<path class="st3" d="M382.89,1580.72c0,12.14-8.55,17.57-16.96,17.57c-9.36,0-16.55-6.44-16.55-17.03c0-10.85,7.12-17.5,17.1-17.5
			C376.31,1563.76,382.89,1570.68,382.89,1580.72z M357.99,1581.06c0,6.38,3.12,11.19,8.21,11.19c4.75,0,8.07-4.68,8.07-11.33
			c0-5.16-2.31-11.06-8.01-11.06C360.36,1569.86,357.99,1575.56,357.99,1581.06z"/>
		<path class="st3" d="M420.2,1549.38v38.87c0,3.39,0.14,7.05,0.27,9.29h-7.46l-0.34-5.22h-0.14c-1.97,3.66-5.97,5.97-10.79,5.97
			c-7.87,0-14.11-6.72-14.11-16.89c-0.07-11.06,6.85-17.64,14.79-17.64c4.55,0,7.8,1.9,9.29,4.34h0.14v-18.72H420.2z
			 M411.86,1578.28c0-0.68-0.07-1.49-0.2-2.17c-0.75-3.26-3.39-5.9-7.19-5.9c-5.36,0-8.34,4.75-8.34,10.92
			c0,6.04,2.98,10.45,8.28,10.45c3.39,0,6.38-2.31,7.19-5.9c0.2-0.75,0.27-1.56,0.27-2.44V1578.28z"/>
	</g>
	<g class="st2">
		<path class="st4" d="M133.04,1639.29h-7.23v-2.61h17.61v2.61h-7.27v21.18h-3.11V1639.29z"/>
		<path class="st4" d="M153.16,1660.47l-0.25-2.15h-0.11c-0.95,1.34-2.79,2.54-5.22,2.54c-3.46,0-5.22-2.44-5.22-4.91
			c0-4.13,3.67-6.39,10.27-6.35v-0.35c0-1.41-0.39-3.95-3.88-3.95c-1.59,0-3.25,0.49-4.45,1.27l-0.71-2.05
			c1.41-0.92,3.46-1.52,5.61-1.52c5.22,0,6.49,3.57,6.49,6.99v6.39c0,1.48,0.07,2.93,0.28,4.09H153.16z M152.7,1651.75
			c-3.39-0.07-7.23,0.53-7.23,3.85c0,2.01,1.34,2.96,2.93,2.96c2.22,0,3.64-1.41,4.13-2.86c0.11-0.32,0.18-0.67,0.18-0.99V1651.75z"
			/>
		<path class="st4" d="M161.56,1643.39l3.74,10.09c0.39,1.13,0.81,2.47,1.09,3.49h0.07c0.32-1.02,0.67-2.33,1.09-3.56l3.39-10.02
			h3.28l-4.66,12.18c-2.22,5.86-3.74,8.86-5.86,10.69c-1.52,1.34-3.04,1.87-3.81,2.01l-0.78-2.61c0.78-0.25,1.8-0.74,2.72-1.52
			c0.85-0.67,1.91-1.87,2.61-3.46c0.14-0.32,0.25-0.56,0.25-0.74s-0.07-0.42-0.21-0.81l-6.32-15.74H161.56z"/>
		<path class="st4" d="M177.05,1635.41h3.11v25.06h-3.11V1635.41z"/>
		<path class="st4" d="M200.84,1651.79c0,6.32-4.38,9.07-8.51,9.07c-4.62,0-8.19-3.39-8.19-8.79c0-5.72,3.74-9.07,8.47-9.07
			C197.52,1643,200.84,1646.56,200.84,1651.79z M187.28,1651.96c0,3.74,2.15,6.56,5.19,6.56c2.96,0,5.19-2.79,5.19-6.63
			c0-2.89-1.45-6.56-5.12-6.56C188.87,1645.33,187.28,1648.72,187.28,1651.96z"/>
		<path class="st4" d="M204.75,1648.72c0-2.01-0.04-3.74-0.14-5.33h2.72l0.11,3.35h0.14c0.78-2.29,2.65-3.74,4.73-3.74
			c0.35,0,0.6,0.04,0.88,0.11v2.93c-0.32-0.07-0.64-0.11-1.06-0.11c-2.19,0-3.74,1.66-4.16,3.99c-0.07,0.42-0.14,0.92-0.14,1.45
			v9.11h-3.07V1648.72z"/>
		<path class="st4" d="M223.45,1656.73c1.38,0.85,3.39,1.55,5.51,1.55c3.14,0,4.98-1.66,4.98-4.06c0-2.22-1.27-3.49-4.48-4.73
			c-3.88-1.38-6.28-3.39-6.28-6.74c0-3.71,3.07-6.46,7.69-6.46c2.44,0,4.2,0.56,5.26,1.16l-0.85,2.51
			c-0.78-0.42-2.36-1.13-4.52-1.13c-3.25,0-4.48,1.94-4.48,3.56c0,2.22,1.45,3.32,4.73,4.59c4.02,1.55,6.07,3.49,6.07,6.99
			c0,3.67-2.72,6.85-8.33,6.85c-2.29,0-4.8-0.67-6.07-1.52L223.45,1656.73z"/>
		<path class="st4" d="M242.12,1643.39l2.26,8.68c0.49,1.91,0.95,3.67,1.27,5.43h0.11c0.39-1.73,0.95-3.56,1.52-5.4l2.79-8.72h2.61
			l2.65,8.54c0.64,2.05,1.13,3.85,1.52,5.58h0.11c0.28-1.73,0.74-3.53,1.31-5.54l2.44-8.58h3.07l-5.51,17.08h-2.82l-2.61-8.15
			c-0.6-1.91-1.09-3.6-1.52-5.61h-0.07c-0.42,2.05-0.95,3.81-1.55,5.65l-2.75,8.12h-2.82l-5.15-17.08H242.12z"/>
		<path class="st4" d="M270.32,1638.59c0.04,1.06-0.74,1.91-1.98,1.91c-1.09,0-1.87-0.85-1.87-1.91c0-1.09,0.81-1.94,1.94-1.94
			C269.58,1636.65,270.32,1637.49,270.32,1638.59z M266.86,1660.47v-17.08h3.11v17.08H266.86z"/>
		<path class="st4" d="M275.43,1660.47v-14.72h-2.4v-2.36h2.4v-0.81c0-2.4,0.53-4.59,1.98-5.96c1.16-1.13,2.72-1.59,4.16-1.59
			c1.09,0,2.05,0.25,2.65,0.49l-0.42,2.4c-0.46-0.21-1.09-0.39-1.98-0.39c-2.65,0-3.32,2.33-3.32,4.94v0.92h4.13v2.36h-4.13v14.72
			H275.43z"/>
		<path class="st4" d="M289.55,1638.48v4.91H294v2.36h-4.45v9.21c0,2.12,0.6,3.32,2.33,3.32c0.81,0,1.41-0.11,1.8-0.21l0.14,2.33
			c-0.6,0.25-1.55,0.42-2.75,0.42c-1.45,0-2.61-0.46-3.35-1.31c-0.88-0.92-1.2-2.44-1.2-4.45v-9.32h-2.65v-2.36h2.65v-4.09
			L289.55,1638.48z"/>
	</g>
	<g>
		<g id="Page-1_29_">
			<g id="Icons-Pattern-One_29_" transform="translate(-407.000000, -465.000000)">
				<g id="Create-Playlist_1_" transform="translate(407.000000, 465.000000)">
					<path class="st3" d="M923.29,1609.39c14.6,0,26.44-11.84,26.44-26.44s-11.84-26.44-26.44-26.44s-26.44,11.84-26.44,26.44
						S908.68,1609.39,923.29,1609.39z M923.29,1616.94c-18.78,0-34-15.22-34-34s15.22-34,34-34c18.78,0,34,15.22,34,34
						S942.06,1616.94,923.29,1616.94z"/>
				</g>
			</g>
		</g>
		<g>
			<path class="st3" d="M926.96,1568.16c0,1.97-1.44,3.52-3.73,3.52c-2.18,0-3.62-1.55-3.62-3.52c0-2.03,1.49-3.57,3.68-3.57
				C925.52,1564.59,926.91,1566.13,926.96,1568.16z M919.98,1601.36v-25.95h6.61v25.95H919.98z"/>
		</g>
	</g>
	<g>
		<path class="st3" d="M127.41,1757.69c-2.15,0-3.92,1.76-3.92,3.92c0,2.15,1.76,3.92,3.92,3.92h687.21v-7.83H127.41z"/>
		<path class="st5" d="M1058.5,1761.6c0-2.15-1.76-3.92-3.92-3.92H814.62v7.83h239.96C1056.74,1765.52,1058.5,1763.75,1058.5,1761.6
			z"/>
		<circle class="st3" cx="821.93" cy="1761.6" r="28.38"/>
	</g>
	<rect x="525.5" y="241.86" class="st6" width="132" height="6"/>
	<g class="st1">
		<g class="st2">
			<circle class="st3" cx="1050.86" cy="2176.35" r="6.68"/>
		</g>
		<g class="st2">
			<circle class="st3" cx="1024.34" cy="2176.35" r="6.68"/>
		</g>
		<g class="st2">
			<circle class="st3" cx="997.83" cy="2176.35" r="6.68"/>
		</g>
	</g>
</g>
</svg>
